<?xml version="1.0" encoding="iso-8859-1"?>
<!-- Generator: Adobe Illustrator 19.0.0, SVG Export Plug-In . SVG Version: 6.00 Build 0)  -->
<svg version="1.1" id="Layer_1" xmlns="http://www.w3.org/2000/svg" xmlns:xlink="http://www.w3.org/1999/xlink" x="0px" y="0px"
	 viewBox="0 0 56 56" style="enable-background:new 0 0 56 56;" xml:space="preserve">
<g>
	<path style="fill:#66CEDB;" d="M24,29.5h8c0-2-1.346-3.146-3-3.146c-0.552,0-1-0.521-1-1.073c0-1.654-1.346-3.037-3-3.037
		c-0.29,0-0.574,0.025-0.847,0.105c-0.006,0.168-0.039,0.325-0.128,0.472c-0.143,0.237-0.378,0.4-0.649,0.458
		C21.999,23.57,21,24.948,21,26.356C21,28.01,22.346,29.5,24,29.5z"/>
	<path style="fill:#EE8B26;" d="M29.916,24.438C32.237,24.869,34,26.5,34,29.5h11c0.552,0,1,0.448,1,1c0,1.654,1.346,3,3,3h1v-3.292
		c0-0.552,0.448-1,1-1c1.654,0,3-1.346,3-3c0-1.408-0.999-2.642-2.376-2.933c-0.271-0.058-0.506-0.225-0.649-0.462
		s-0.181-0.524-0.105-0.79C50.958,21.709,51,21.45,51,21.208c0-1.654-1.346-3-3-3c-0.226,0-0.468,0.036-0.759,0.113
		c-0.308,0.08-0.634,0.012-0.881-0.187c-0.247-0.198-0.386-0.503-0.373-0.819c0.001-0.034,0.011-0.135,0.016-0.168
		C46,15.553,44.654,14.208,43,14.208c-0.602,0-1.182,0.178-1.679,0.514c-0.257,0.174-0.58,0.221-0.875,0.121
		c-0.295-0.097-0.527-0.326-0.63-0.619c-0.422-1.206-1.554-2.016-2.817-2.016s-2.395,0.81-2.817,2.016
		c-0.103,0.293-0.335,0.522-0.63,0.619c-0.293,0.1-0.618,0.053-0.875-0.121c-0.497-0.336-1.077-0.514-1.679-0.514
		c-1.654,0-3,1.346-3,3c0,0.552-0.448,1-1,1c-1.33,0-2.448,0.876-2.84,2.077c0.276-0.047,0.556-0.004,0.84-0.004
		C27.444,20.281,29.484,22.117,29.916,24.438z"/>
	<path style="fill:#F8CF26;" d="M5,37.208c0.552,0,1,0.448,1,1V41.5h1c1.654,0,3-1.346,3-3c0-0.552,0.448-1,1-1h21
		c1.654,0,3-1.492,3-3.146c0-1.408-0.999-2.568-2.376-2.859c-0.056-0.013-0.101,0.005-0.153,0.005H24c-2.757,0-5-2.389-5-5.146
		c0-1.864,1.057-3.606,2.639-4.462c-0.512-0.978-1.523-1.647-2.639-1.647c-1.263,0-2.395,0.792-2.817,1.997
		c-0.103,0.293-0.335,0.513-0.63,0.61c-0.293,0.098-0.617,0.048-0.875-0.126C14.182,22.39,13.602,22.21,13,22.21
		c-1.654,0-3,1.345-3,2.999c0.004-0.009,0.011,0.046,0.014,0.106c0.013,0.317-0.126,0.621-0.373,0.819
		c-0.248,0.199-0.574,0.269-0.881,0.187c-0.291-0.077-0.533-0.113-0.759-0.113c-1.654,0-3,1.346-3,3
		c0,0.243,0.041,0.502,0.131,0.815c0.076,0.267,0.038,0.553-0.105,0.79s-0.378,0.405-0.649,0.462C2.999,31.566,2,32.799,2,34.208
		C2,35.862,3.346,37.208,5,37.208z"/>
	<g>
		<path d="M52.98,21.619C52.994,21.48,53,21.344,53,21.208c0-2.79-2.294-5.043-5.1-4.999c-0.464-2.28-2.485-4.001-4.9-4.001
			c-0.618,0-1.223,0.113-1.79,0.331c-0.902-1.428-2.482-2.331-4.21-2.331s-3.308,0.903-4.21,2.331
			c-0.256-0.098-0.521-0.168-0.79-0.223V8.208C32,5.451,29.757,3.5,27,3.5H8c-2.757,0-5,1.951-5,4.708v11.586L1.707,18.5
			l-1.414,1.414l3,3C3.488,23.11,3.744,23.208,4,23.208s0.512-0.098,0.707-0.293l3-3L6.293,18.5L5,19.793V8.208
			C5,6.553,6.346,5.5,8,5.5h19c1.654,0,3,1.053,3,2.708v4.109c-1.983,0.405-3.545,1.98-3.916,3.975
			c-1.745,0.325-3.174,1.559-3.776,3.191c-0.894-0.799-2.06-1.275-3.308-1.275c-1.728,0-3.308,0.903-4.21,2.331
			c-0.567-0.218-1.172-0.331-1.79-0.331c-2.415,0-4.436,1.721-4.9,4.001C5.319,24.158,3,26.417,3,29.208
			c0,0.136,0.006,0.272,0.02,0.411C1.224,30.397,0,32.195,0,34.208c0,2.415,1.721,4.435,4,4.899v3.101C4,42.76,4.448,43.5,5,43.5h2
			c2.415,0,4.435-2,4.899-4H16v7.708c0,2.756,2.243,5.292,5,5.292h17c2.757,0,5-2.536,5-5.292V36.622l1.293,1.293l1.414-1.415l-3-3
			c-0.391-0.391-1.023-0.391-1.414,0l-3,3l1.414,1.414L41,36.622v10.586c0,1.654-1.346,3.292-3,3.292H21c-1.654,0-3-1.638-3-3.292
			V39.5h14c2.757,0,5-2.243,5-5c0-1.114-0.385-3-1.024-3h8.125c0.464,2,2.485,4,4.899,4h2c0.552,0,1-0.74,1-1.292v-3.101
			c2.279-0.464,4-2.485,4-4.899C56,24.195,54.776,22.397,52.98,21.619z M24,29.5c-1.654,0-3-1.492-3-3.146
			c0-1.408,0.999-2.715,2.376-3.006c0.271-0.058,0.506-0.262,0.649-0.499c0.089-0.147,0.122-0.331,0.128-0.5
			c0.273-0.08,0.557-0.133,0.847-0.133c1.654,0,3,1.341,3,2.995c0,0.552,0.448,1.144,1,1.144c1.654,0,3,1.144,3,3.144L24,29.5
			L24,29.5L24,29.5z M32.624,31.421C34.001,31.712,35,33.019,35,34.427c0,1.654-1.346,3.073-3,3.073H11c-0.552,0-1,0.448-1,1
			c0,1.654-1.346,3-3,3H6v-3.292c0-0.552-0.448-1-1-1c-1.654,0-3-1.346-3-3c0-1.408,0.999-2.642,2.376-2.933
			c0.271-0.058,0.506-0.225,0.649-0.462s0.181-0.523,0.105-0.79C5.041,29.709,5,29.45,5,29.208c0-1.654,1.346-3,3-3
			c0.226,0,0.468,0.036,0.759,0.113c0.307,0.082,0.633,0.012,0.881-0.187c0.247-0.198,0.386-0.503,0.373-0.819
			c-0.002-0.059-0.009-0.116-0.014-0.106c0-1.654,1.346-3,3-3c0.602,0,1.182,0.178,1.679,0.514c0.258,0.174,0.581,0.219,0.875,0.121
			c0.295-0.097,0.527-0.326,0.63-0.619c0.422-1.206,1.554-2.016,2.817-2.016c1.115,0,2.127,0.633,2.639,1.611
			C20.057,22.675,19,24.49,19,26.354c0,2.757,2.243,5.146,5,5.146h8.471C32.523,31.5,32.568,31.409,32.624,31.421z M51,29.208
			c-0.552,0-1,0.448-1,1V33.5h-1c-1.654,0-3-1.346-3-3c0-0.552-0.448-1-1-1H34c0-3-1.763-4.631-4.084-5.062
			c-0.432-2.321-2.472-4.157-4.916-4.157c-0.284,0-0.564-0.007-0.84,0.04c0.392-1.201,1.509-2.095,2.84-2.095
			c0.552,0,1-0.457,1-1.009c0-1.654,1.346-3.005,3-3.005c0.602,0,1.182,0.175,1.679,0.511c0.257,0.174,0.581,0.22,0.875,0.12
			c0.295-0.097,0.527-0.327,0.63-0.62c0.422-1.205,1.554-2.016,2.817-2.016s2.395,0.81,2.817,2.015
			c0.102,0.293,0.335,0.522,0.63,0.619c0.294,0.1,0.618,0.053,0.875-0.121c0.497-0.336,1.077-0.514,1.679-0.514
			c1.654,0,3,1.346,3.002,2.938c-0.005,0.034-0.015,0.134-0.016,0.168c-0.013,0.317,0.126,0.621,0.373,0.819
			c0.247,0.199,0.573,0.267,0.881,0.187c0.292-0.077,0.533-0.113,0.759-0.113c1.654,0,3,1.346,3,3c0,0.243-0.042,0.502-0.131,0.815
			c-0.076,0.267-0.038,0.553,0.105,0.79s0.378,0.405,0.649,0.462C53.001,23.566,54,24.799,54,26.208
			C54,27.862,52.654,29.208,51,29.208z"/>
		<rect x="42" y="4.207" width="2" height="2"/>
		<rect x="46" y="4.207" width="2" height="2"/>
		<rect x="50" y="4.207" width="2" height="2"/>
		<rect x="4" y="50.208" width="2" height="2"/>
		<rect x="8" y="50.208" width="2" height="2"/>
		<rect x="12" y="50.208" width="2" height="2"/>
	</g>
</g>
<g>
</g>
<g>
</g>
<g>
</g>
<g>
</g>
<g>
</g>
<g>
</g>
<g>
</g>
<g>
</g>
<g>
</g>
<g>
</g>
<g>
</g>
<g>
</g>
<g>
</g>
<g>
</g>
<g>
</g>
</svg>
