<?xml version="1.0" encoding="iso-8859-1"?>
<!-- Generator: Adobe Illustrator 19.0.0, SVG Export Plug-In . SVG Version: 6.00 Build 0)  -->
<svg version="1.1" id="Layer_1" xmlns="http://www.w3.org/2000/svg" xmlns:xlink="http://www.w3.org/1999/xlink" x="0px" y="0px"
	 viewBox="0 0 511.991 511.991" style="enable-background:new 0 0 511.991 511.991;" xml:space="preserve">
<circle style="fill:#FFD630;" cx="255.995" cy="255.995" r="255.995"/>
<path style="fill:#F5BE18;" d="M507.983,301.45L343.941,137.407l-41.856,41.856l-93.437-93.437l-0.845,23.042l-37.629,26.847
	l-41.856,66.589l12.05,56.231l27.692,51.158l5.285,22.196l67.647,67.435L196.177,430.4l80.964,80.964
	c116.479-9.513,210.761-96.819,231.055-209.704L507.983,301.45z"/>
<rect x="240.989" y="359.158" style="fill:#E84F4F;" width="23.465" height="49.25"/>
<path style="fill:#D14747;" d="M252.829,359.161h11.838v49.255h-11.838V359.161z"/>
<path style="fill:#E84F4F;" d="M210.761,399.326h84.136c6.554,0,14.586,9.513,14.586,16.066V430.4H196.175v-15.009
	C196.175,408.838,204.208,399.326,210.761,399.326z"/>
<path style="fill:#D14747;" d="M252.829,399.326h42.067c6.554,0,14.586,9.513,14.586,16.066V430.4h-56.654v-31.075H252.829z"/>
<g>
	<path style="fill:#E84F4F;" d="M344.363,349.648c-68.703,40.588-157.278,17.757-197.654-50.946
		c-40.588-68.703-17.757-157.278,50.946-197.654l9.724,16.7c-59.402,35.091-79.274,111.828-44.181,171.231
		s111.828,79.274,171.231,44.181l9.724,16.7L344.363,349.648z"/>
	<path style="fill:#E84F4F;" d="M190.341,86.822l13.193-7.784c0.462-0.273,1.064-0.109,1.345,0.365l161.862,274.349
		c0.28,0.475,0.132,1.08-0.33,1.354l-13.193,7.784c-0.462,0.273-1.064,0.109-1.345-0.365L190.011,88.175
		C189.731,87.701,189.879,87.095,190.341,86.822z"/>
</g>
<circle style="fill:#E8F6F7;" cx="275.023" cy="223.872" r="110.556"/>
<path style="fill:#006AA3;" d="M344.152,137.407c20.505,16.489,35.091,40.166,39.742,67.224c-0.423-0.423-0.634-1.269-1.057-2.114
	c-2.114,0.634-2.325,0.845-4.862,1.269l-0.211,0.211c-1.057,1.48,0,0.845-1.691,2.325c-2.114,1.691-3.594,4.228-5.919,5.707
	c-0.211,2.537,0.211,3.171-0.423,6.131c-0.211,1.057-1.48,4.017-2.959,3.806c-0.423,0-2.325-4.862-2.959-6.342
	c-0.845-2.325-1.691-4.017-2.325-6.554c-0.211-1.48-0.634-4.017-0.845-5.073c-1.48,0.211-1.48,1.269-2.959,0.211
	c-1.057-0.845-0.634-1.269-1.057-2.325c-1.269-1.057-2.537-2.325-3.593-3.382c-1.057-0.211-4.651,0.211-6.131,0
	c-2.748-0.211-2.959,0-4.651-2.325c-2.959,0.211-2.748,1.269-5.496-1.269c-1.903-1.691-1.48-4.228-4.228-2.748
	c0,2.325,1.057,2.748,2.114,4.017c0.845,0.845,1.691,1.48,2.114,2.537c0,0,0.211,1.057,0.211,1.269
	c2.748,0.211,3.382-1.057,4.651-2.114c1.48,1.269,0,1.48,2.114,2.537c1.691,0.845,1.269,0.423,2.325,1.691
	c0.634,1.691-3.594,6.554-5.073,7.61c-1.057,0.634-1.691,0.211-2.537,1.057c-1.48,1.269,0.211,1.057-2.325,1.903
	c-2.748,1.057-5.285,2.959-8.033,3.171c-0.634-1.691-1.269-3.382-1.903-5.073c-1.691-5.707-1.691-3.382-3.593-6.342
	c-0.845-1.269-0.423-2.114-1.057-3.171c-0.423-0.845-1.057-1.269-1.48-2.325c-0.845-1.691-1.691-4.228-3.593-3.806
	c-0.423,1.269,1.691,5.496,2.325,6.554c0.634,1.057,1.48,1.48,1.691,2.959c0.423,2.114,0,1.903,1.057,3.171
	c2.325,2.959-0.211,2.325,3.594,5.073c2.748,2.114,2.114,2.748,3.171,5.496c1.903,0.423,7.187-1.903,8.033-1.269
	c1.057,1.903-1.269,5.073-1.903,6.765c-1.903,5.707-5.496,5.707-8.033,9.935c-1.48,2.325-2.114,2.748-3.382,5.496
	c-1.48,3.171,3.171,12.05,0.423,15.855c-0.634,0.845-2.537,1.269-5.073,4.017c-2.536,2.748,0,2.325-0.845,6.976
	c-0.845,1.057-1.691,1.057-2.748,1.903c-0.423,1.057,0,1.903-0.634,3.382c-0.634,1.691-0.845,0.845-1.691,2.114
	c-0.634,1.057-0.634,1.48-1.48,2.537c-0.634,0.845-1.057,1.057-1.691,1.691c-3.171,2.748-9.724,2.959-10.358,2.537
	c-1.48-1.269-0.423-1.691-0.845-3.594c-0.423-1.691-1.269-2.959-1.903-4.228v-0.211c-0.423-0.634-0.634-1.269-0.845-1.691
	c-1.269-4.017-0.845-7.187-2.959-11.204c-2.748-5.285,1.48-8.033,1.48-10.993c0-0.845-0.423-1.269-0.423-1.903
	c-0.634-3.382-0.845-6.131-2.959-8.879c-2.325-2.748-2.114-1.903-1.269-6.342c1.057-5.285-1.269-4.017-4.44-4.017
	c-1.48-4.862-4.651-2.537-7.61-1.057c-1.903,0.845-2.537-0.211-4.862,0c-4.862,0.634-1.057,2.748-7.399-2.325
	c-2.748-2.114-0.845-1.057-2.537-3.806c-0.634-1.057-2.114-2.325-2.959-3.171c-2.537-2.959,0.423-6.131,0-9.724
	c-0.845-6.554-1.903-0.845,1.903-8.668c1.903-4.228,4.862-4.228,5.496-6.131c0.634-1.691,0.211-2.959,1.48-4.439
	c1.057-1.269,2.537-1.057,3.171-2.959c0.845-2.325-0.845-2.748-2.537-2.748c-0.845-2.537-0.845-1.903-0.211-4.228
	c0.423-1.269,0-1.903,0.423-3.171c0.634-3.171,6.342,0,7.821-1.269c0.845-1.48,0.845-2.748,0-4.017
	c-0.845-1.269-2.114-1.269-2.748-2.537c1.269-0.845,0.423-0.211,1.48-0.423c1.48-0.211,1.269-0.634,2.748-1.057
	c1.48-0.211,2.325-1.691,3.806-2.537c2.114-1.269,1.057-2.537,3.593-2.959c4.017-0.634,1.48-0.634,1.903-4.228
	c0.634-0.211,1.269-0.423,1.691-0.634c1.269,1.691-0.211,1.057,1.269,2.114c0.423-0.211,0.845-0.423,1.269-0.634
	c-0.211-1.691-1.057-1.48-1.48-3.593c-1.903,0.211-2.748,1.903-4.228,1.269s-1.691-2.748-1.48-4.651
	c0.634-1.269,3.382-2.114,4.44-2.537c1.691-0.634,1.48-1.691,3.171-3.382c2.114-2.114,0.634,0,1.691-2.748
	c2.325,0,1.269-0.211,2.537-0.845l0,0h0.211c0.845-0.423,1.903-0.423,2.959-0.845c3.806-1.269,5.496-0.634,8.244,0.423
	c2.114,0.845,8.879,0.845,9.302,3.806c-1.691,1.691-3.171,0.423-5.496,0.634c0.423,2.114,0.634,2.114,2.537,2.748
	c0.423-1.057-0.211-0.634,0.423-1.269c0.634,0.211,1.269,0.211,1.903,0.423c0.634-2.114,1.48-1.903,3.593-2.114
	c-0.423-1.48-0.845-1.057,0-2.325c2.325,0.211,0.423,0,1.48,1.903c1.48-0.211,3.171-1.903,5.285-2.114
	c1.269-0.211,1.269,0.423,3.171,0.211c1.48-0.211,1.48-0.634,2.959,0c0.634-1.057,0-1.057,1.48-1.269
	c2.114-0.423,4.017,0.845,5.919,1.269c-1.48-1.903-2.959-1.48-1.057-4.651c2.325-0.423,2.537-0.211,3.594,1.691
	c0.634-0.423,0.845-0.634,1.057-0.845v-0.425H344.152z M167.003,199.98c5.073-22.619,16.912-42.702,33.401-57.922
	c1.269,0.423,2.959,0.211,4.228,0c0.423-0.845,0.845-1.691,1.48-1.903c0.423-0.211,0.634-0.211,1.269-0.211
	c0,0.423,0.211,0.845,0.211,1.269v0.211v0.211c2.325-1.269,0.423-1.269,1.48-3.593c-1.903-0.423-1.691-0.211-2.748-1.269
	c1.057-1.269,3.382-1.691,4.862-1.48c-0.211,1.057-0.634,1.057-0.211,2.114c1.269-0.845,2.114-2.959,4.228-2.537
	c0.423,0.211,0.845,0.634,1.269,0.845c-1.057,1.057-2.748,1.057-4.017,1.691c-0.634,6.131,1.903,1.057,1.057,5.285
	c1.48-0.211,2.959-1.269,3.593-2.325c-0.634-0.634-1.48-0.634-1.903-1.691c0.423-1.057,1.057-1.903,2.114-2.537
	c0.634-0.423,1.691-0.634,2.537-0.634c11.204,0,5.919,0.634,9.302,2.114c0.845,0.423,2.114,0.423,2.537,1.269
	c0.634,1.057,0,2.114,1.269,2.959c1.057,0.634,1.057,0,2.537,1.691c-0.211,0.845-1.057,1.903-2.325,1.903
	c-1.903,0-0.845-1.269-2.748-1.057c0,1.903,1.903,2.748,0.211,3.806c-1.48,0.845-0.634-0.423-1.691,0.211c0,0-0.211,0-0.211,0.211
	l-0.211,0.211c-0.211,0.211-0.423,0.423-0.634,0.634c-2.748-0.845-2.325-0.423-4.017-2.325c-0.634-0.634-0.845-0.845-1.903-0.845
	c-0.634,0-1.691,0.423-2.325-0.211c1.48-1.691,2.114,0,4.017-1.057c0.423-0.211,2.537-1.903,2.959-2.325
	c-0.634-1.269,0-0.211-1.057-1.057c-1.903-2.114-2.537-1.48-5.285-1.48c-1.269,1.48-2.114,3.171-3.593,4.017
	c-0.845,0.423-1.903,0.634-3.171,0c0.634,2.537,2.114,0.634,2.325,3.593c-1.057-0.211-1.48-0.634-2.537-0.423
	c-2.325,0.845-0.211,0.845,0,1.269c0,0,1.057,0.211,0,0.634c-1.269,0.423-0.211-0.211-2.537-1.48
	c0.423-0.634,0.634-1.057,1.057-1.691c-1.903,0.634-4.228,1.48-6.342,2.537c-2.537,1.269-4.651,2.537-6.131,3.806
	c0,2.114,0.423,0.634,0.634,3.171c3.382,0.211,2.325,1.269,5.496,2.114c0.634,0.211,1.48,0.423,2.537,0.423
	c0,1.691-1.48,2.748-0.423,4.439c2.325,1.691,2.325-1.48,2.959-3.593c7.821-1.691,4.017-4.017,6.131-8.244
	c0.211-0.634,0.634-1.269,1.269-2.114c0.634,0,2.959,0.211,3.593,0.423c1.691,0.211,0.845,0.634,2.748,1.48
	c0,1.48-0.845,3.593,1.48,3.171c1.691-0.211,1.269-1.691,3.382-2.114c1.057,2.325,0.634,3.171,1.057,5.919
	c5.073,1.903,2.748,3.593,1.903,7.399c0.634,0.211,1.269,0.634,1.903,0.845c0,1.057,0,2.114-0.211,3.171
	c0,0-5.496-1.269-5.707-1.269c0.845-2.325,2.325-2.325,3.171-4.651c-1.903,0.423-1.691,0.845-3.171,1.269
	c-1.269,0.423-2.114,0.211-3.593,0.211c-0.423,1.48,0-1.269,0.211,0.634c0,0.634,0.423,0,0,0.845
	c-1.691-0.845-1.269-2.748-4.439-1.057c0.845,0.423,1.48,0.634,2.325,1.057c0,2.114-0.211,0.634-0.845,1.903
	c-1.057,3.806,3.171,1.48,4.228,1.269c-0.211,1.903-1.48,1.903-3.171,2.537c-1.903,0.634-2.537,1.269-4.017,1.691
	c0-2.325-0.423-0.423,0.634-1.903c-1.48,0.211-2.537,0.845-4.017,1.48h-0.211c-1.903,0.845-2.114,0.845-2.325,3.171
	c-1.48,0.423-3.382,1.057-4.439,2.114c-1.057,1.057-2.114,2.114-3.171,3.171l-0.211,0.211c0.423,2.959,0,2.959-1.691,4.017
	c-1.48,1.057-1.903,0.845-3.382,2.114c-4.439,4.017-2.325,2.114-2.114,8.879c-0.845-0.211-1.903-0.634-2.748-0.845
	c-0.634-4.439,0.211-2.959-3.382-4.017c-4.017-1.057-3.382,0.845-5.073,1.057c-1.903,0.423-2.748-1.691-5.285,0
	c-1.48,1.057-2.748,1.691-3.171,3.382c-0.423,2.114-1.48,3.593-1.269,6.131c0.211,6.342,6.131,6.765,7.61,3.806
	c1.057-1.903,0.845-2.959,4.017-2.537c0.423,1.691-0.211,2.959-0.634,4.228c-0.211,0.845-1.057,2.114-0.634,3.171
	c2.325,0.845,2.325-0.845,5.496,1.057c0.211,2.959-1.48,6.342,1.057,8.244c1.903,1.269,1.903,0.211,3.593-0.211
	c1.691-0.211,1.48,0.845,3.171,1.057c0.845-1.057,0.634-0.423,1.057-1.903c1.057-2.325,1.269-1.269,3.806-2.748
	c0.211-0.211,0.423-0.211,0.634-0.423c0.211,0.634,0.634,1.269,0.845,1.691c1.903-2.114,2.114,0,4.228,0.634
	c0.845,0.211,1.48,0.423,2.114,0.423c1.48,0,1.691-0.634,3.806,0c0.211,0.211,0.634,0.211,0.845,0.211c0,0,0.211,0,0.211,0.211
	l0.211,0.211c0.423,0.423,0.423,0.845,0.634,1.269c1.48,1.48,2.959,2.748,4.228,4.228c2.748,1.057,2.748-1.057,5.919,2.114
	c1.269,1.269,0.845,1.269,1.48,2.959c0.211,0.211,0.423,0.423,0.423,0.845c0.211,0.845,0.634,1.48,0.845,2.325
	c1.48,1.903,3.382,0.634,5.496,2.748c1.269,1.057,0.211,0.845,2.959,1.269c4.017,0.634,2.537,0.211,5.496,2.537
	c1.269,0.845,1.48,0.423,2.537,1.057c1.48,2.114,1.057,4.439-0.211,6.342c-4.017,5.707-2.537,4.862-2.748,9.302
	c-0.211,2.537-0.845,8.033-3.382,8.668c-8.879,2.537-3.806,4.228-6.131,8.668c-0.634,1.269-1.269,1.48-1.691,2.537
	c-1.691,4.228-0.634,5.496-5.707,4.651c0.423,0.845,0.211,0.211,0.634,1.057c1.48,2.325,1.903,4.228-1.48,4.862
	c-2.748,0.423-1.48,0-1.691,2.959c-1.057,0.423-1.48,0-2.114,0.634c0.845,1.691,0,0.211,1.691,1.269
	c-0.211,0.845-0.423,1.903-0.845,2.748c-0.634,2.114-0.845,0.211-1.057,2.748c0.845,0.423,1.48,0.423,2.325,1.48
	c0,0.845-1.057,3.171-1.269,4.439c1.269,1.903,2.325,4.017,5.073,4.228c0,1.691,0.423,1.48-1.057,1.903
	c-1.269,0.211-3.806-0.845-4.862-1.48c-1.903-1.057-3.593-2.325-4.862-4.228c-0.634-1.057-0.423-0.634-1.269-1.48
	c-1.269-1.691-0.845-2.537-1.269-3.594c-0.211-0.634-1.269-1.48-0.845-3.593c0.211-0.634,1.057-3.594,0-3.171
	c-1.269,0.423,0.845,0.211-0.845,1.057c-0.423-1.057-0.634-2.748-0.845-4.017c-0.423-2.325-1.057-2.325-1.269-3.593
	c-0.634-3.171,0.845-3.594-0.634-8.668c-1.057-3.382-0.634-11.627-1.691-15.855c-0.211-0.634-0.423-1.269-0.634-1.691
	c-1.057-1.691-3.382-2.325-5.073-3.593c-0.211,0-0.211,0-0.211-0.211c-2.537-1.903-5.073-8.879-7.187-11.627
	c-1.057-1.269-1.48-0.634-1.903-2.748c-0.423-1.903,0.211-1.48,0.845-3.171c-3.171-5.707,4.017-5.707,2.537-12.683
	c-0.211-1.269-1.269-2.959-2.114-3.593c-1.48,0.634-0.845,1.057-1.48,2.325c-1.269-0.634-2.325-1.269-3.593-2.114
	c-3.593-3.593-1.691-1.057-2.748-3.171c-2.114-4.862-4.228-2.114-6.976-4.439c-1.269-1.057-1.48-2.537-3.382-2.325
	c-2.959,0.423-1.269,0.845-4.439-0.634c-2.537-1.269-5.285-2.537-6.976-4.228c0-2.537,0.845-2.748-0.845-5.073
	c-0.211-0.423-0.634-0.845-0.845-1.269L167.003,199.98z M201.671,141.001c0.634-0.634,1.269-1.269,2.114-1.691v0.211
	c0.211,0.211,0.211,0.211,0.423,0.845c-1.691,0.423-1.691,0.634-2.537,0.845L201.671,141.001L201.671,141.001z M296.376,173.979
	c1.057,0.634,2.114,1.057,2.959,1.691c0.845,2.537-0.211,1.269,1.48,4.017c1.057,1.48,0.845,2.537,1.903,3.171
	c1.903-0.211,0.211,0.211,1.48-0.845c0.211-0.211,0.845-0.845,1.057-1.269c-0.634-1.057-1.057-1.057-1.691-2.114
	c2.114-2.959,3.171-1.269,3.593,0.634c1.48,5.285,3.594,3.806,5.285,3.593c1.903-0.211,0.211,0,1.903,0.423
	c1.48,0.423,0.845,0,1.903-0.211c3.806-0.845,0.845,6.342,0.423,7.187c-2.114,0.211-1.691-0.211-3.171-0.423
	c-2.959-0.211,0.211,1.691-6.765-0.423c-6.554-2.114-5.285-2.537-6.554,2.114c-1.48-0.211-1.48-0.423-2.959-0.845
	c-0.634-0.211-0.845-0.211-1.057-0.423l0,0c-0.634-0.211,0,0-1.269-1.057c-1.057-1.057-3.594-1.269-5.285-2.114
	c0-1.48,1.269-2.748-0.211-4.651c-0.634-0.211-8.033,0.211-9.302,0.423c-2.537,0.423-2.959,2.537-6.131,2.114
	c-1.903-0.211-1.269,0-1.691-1.057c0.634-0.634,0-0.211,1.057-0.634c0.423-0.211,0.634,0,0.845-0.211
	c5.496-0.845,2.748-3.593,6.131-6.131c2.748-2.325,0.634,0,2.114-2.748c1.903-0.211,1.691,0.845,3.382,0
	c1.269-0.634,0.845-1.269,2.748-1.269c1.691,1.691,1.269,2.748,4.017,4.017c1.057,0.423,1.691,0.845,2.537,1.691
	c1.269,1.903,0.211,1.269,0.634,2.537c0,0,0.211-0.211,0.423-0.211l0,0c1.48-0.634-0.845-0.845,1.691-2.959
	c-0.634-0.423-1.269-0.845-1.691-1.057l0,0c-1.903-1.057-1.057,0-3.594-3.171c-0.634-0.845-0.845-0.845-0.845-2.114
	c1.691-0.211,2.114,0.845,3.593,2.325c0.211,0.211,0.423,0.423,0.634,0.634l0,0L296.376,173.979z M334.216,250.292
	c-1.48,0.845-1.691,2.537-2.959,3.593c-1.269,1.269-2.959,0.634-3.382,2.748c-0.634,2.748,1.057,1.903-0.845,5.285
	c-0.634,1.269-0.634,4.651,0.423,5.496c3.171,2.959,4.651-4.439,5.496-6.976c0.634-1.691,1.057-3.594,1.691-5.073
	c0.634-1.691,1.48-3.171-0.211-5.285L334.216,250.292z M329.143,171.231c0.211,3.382,2.325,4.862,3.806,6.342
	c-0.211,1.691-0.634,1.269-0.634,3.593c1.691,1.269,2.959,2.114,5.285,1.48c0.211-2.748-0.634-2.537-1.48-4.439
	c0.211-0.211,0.634-0.423,0.634-0.634c0.634-0.845,0.423,0.423,0.634-1.057c-1.691-0.634-4.439-2.325-4.651-4.439
	c0.845-0.634,0.634-0.211,1.269-0.634c1.269-0.845,0.423,0.423,1.057-1.057c-0.634-1.269-1.48-1.48-2.959-0.845
	c-0.634,0.211-2.537,1.691-2.959,1.903v-0.211H329.143z M314.768,172.076c-1.057-1.48-1.057-2.325-3.171-2.325
	c-0.845,0.845-1.903,2.325-2.325,3.593c-0.634,2.114-0.211,0.634-0.211,2.959v0.211c0,1.269-0.423-0.211-0.211,1.057
	c1.691-0.423,0.423-0.211,1.691-0.634c1.269-0.423,4.651-1.48,5.707-1.269c2.537,0.634,4.439,2.537,7.187,0.634
	c-0.211-2.537-3.171-3.382-5.073-4.439c0.211-2.325,0.634-0.423,0.634-2.748c-0.634,0-1.057-0.211-1.903,0.211
	c-1.691,0.634-0.634,0.845-0.634,1.269c0,1.269,1.691-0.211,0,1.269c-0.423,0.423-1.269,0.423-1.691,0.423L314.768,172.076
	L314.768,172.076z M273.335,154.953c0,4.017,1.269,2.537,2.537,4.651c-0.634,1.691-0.634,0.423-1.48,2.114
	c-0.634,1.48,0.211,0.211-0.211,2.748c1.057,0,2.537-0.211,3.806-0.423c1.903-0.211,1.903-0.423,2.537-2.325
	c-1.057-1.269-2.114-2.537-3.171-3.806c-1.48-2.114,0-0.634-0.423-2.325c-0.423-0.634-0.634-1.269-0.845-1.903
	c-1.903,0.634-1.691,0.423-2.959,1.48L273.335,154.953z"/>
<g>
</g>
<g>
</g>
<g>
</g>
<g>
</g>
<g>
</g>
<g>
</g>
<g>
</g>
<g>
</g>
<g>
</g>
<g>
</g>
<g>
</g>
<g>
</g>
<g>
</g>
<g>
</g>
<g>
</g>
</svg>
