<?xml version="1.0" encoding="iso-8859-1"?>
<!-- Generator: Adobe Illustrator 19.0.0, SVG Export Plug-In . SVG Version: 6.00 Build 0)  -->
<svg version="1.1" id="Layer_1" xmlns="http://www.w3.org/2000/svg" xmlns:xlink="http://www.w3.org/1999/xlink" x="0px" y="0px"
	 viewBox="0 0 512.057 512.057" style="enable-background:new 0 0 512.057 512.057;" xml:space="preserve">
<circle style="fill:#FF7069;" cx="256.028" cy="256.028" r="256.028"/>
<g>
	<path style="fill:#FFE356;" d="M213.206,139.698h3.006l17.526-9.585l2.836-11.174c-4.197-4.197-8.508-11.344-12.421-20.135
		c-0.34,0.057-0.624,0.057-0.964,0.057c-4.651,0-9.245-5.048-10.266-11.287c-0.794-4.878,0.794-9.018,3.8-10.606
		c-3.914-20.022-3.006-51.33,31.479-58.931c20.646-4.537,30.004,9.926,30.912,11.684c21.496-3.176,20.135,37.321,17.64,48.268
		c7.487,4.027,0.567,23.368-7.6,20.872c-3.687,8.111-8.621,15.03-13.669,20.078l2.836,11.174h0.227l17.072,9.585h3.233
		c22.517,0,40.951,17.753,40.951,39.306v16.448c0,8.508-6.92,15.371-15.371,15.371H187.626c-8.508,0-15.371-6.92-15.371-15.371
		v-16.448C172.255,157.394,190.688,139.698,213.206,139.698z"/>
	<path style="fill:#FFE356;" d="M64.886,362.092h3.006l17.526-9.585l2.836-11.174c-4.197-4.197-8.508-11.344-12.421-20.135
		c-0.34,0.057-0.624,0.057-0.964,0.057c-4.651,0-9.245-5.048-10.266-11.287c-0.794-4.878,0.794-9.018,3.8-10.606
		c-3.914-20.022-3.006-51.33,31.479-58.931c20.646-4.538,30.004,9.926,30.912,11.684c21.496-3.176,20.135,37.321,17.64,48.268
		c7.487,4.027,0.567,23.368-7.6,20.872c-3.687,8.111-8.621,15.03-13.669,20.078l2.836,11.174h0.227l17.072,9.585h3.233
		c22.517,0,40.951,17.753,40.951,39.306v16.448c0,8.508-6.92,15.371-15.371,15.371H39.306c-8.508,0-15.371-6.92-15.371-15.371
		v-16.448C23.935,379.789,42.369,362.092,64.886,362.092z"/>
	<path style="fill:#FFE356;" d="M361.468,362.092h3.006l17.526-9.585l2.836-11.174c-4.197-4.197-8.508-11.344-12.421-20.135
		c-0.34,0.057-0.624,0.057-0.964,0.057c-4.651,0-9.245-5.048-10.266-11.287c-0.794-4.878,0.794-9.018,3.743-10.606
		c-3.914-20.022-3.006-51.33,31.479-58.931c20.702-4.538,30.004,9.926,30.912,11.684c21.496-3.176,20.135,37.321,17.64,48.268
		c7.487,4.027,0.567,23.368-7.6,20.872c-3.687,8.111-8.621,15.03-13.669,20.078l2.836,11.174h0.227l17.072,9.585h3.233
		c22.517,0,40.951,17.753,40.951,39.306v16.448c0,8.508-6.92,15.371-15.371,15.371H335.832c-8.508,0-15.371-6.92-15.371-15.371
		v-16.448c0-21.61,18.434-39.306,40.951-39.306H361.468z"/>
</g>
<g>
	<path style="fill:#FFFFFF;" d="M117.635,116.047l37.264,0.567l-0.567,37.264c-3.29-3.403-8.168-8.451-11.457-11.854
		c-30.912,28.473-46.906,52.068-27.962,78.499c-31.649-27.679-24.162-57.513,12.818-94.04l-0.113-0.113l-9.982-10.266V116.047z"/>
	<path style="fill:#FFFFFF;" d="M420.513,194.318l-26.488,26.204l-26.204-26.488c4.764,0,11.741,0.113,16.505,0.113
		c1.305-42.029-4.367-69.934-36.527-74.925c41.972-3.233,58.023,23.028,58.193,74.982h0.17l14.35,0.057V194.318z"/>
	<path style="fill:#FFFFFF;" d="M225.4,486.874l-22.574-29.607l29.607-22.574c-0.624,4.708-1.645,11.627-2.269,16.335
		c41.461,6.75,69.934,4.708,79.009-26.544c-2.212,42.029-30.288,54.563-81.845,48.041v0.17L225.4,486.874z"/>
</g>
<path style="fill:#FEFEFE;" d="M243.607,322.219c-0.794,1.134-2.325,1.418-3.517,0.681c-1.134-0.794-1.418-2.325-0.681-3.517
	c1.815-2.666,4.311-4.935,7.203-6.466c2.779-1.475,5.955-2.325,9.359-2.325c3.346,0,6.523,0.851,9.359,2.325
	c2.893,1.531,5.388,3.743,7.203,6.466c0.794,1.134,0.51,2.723-0.681,3.517c-1.134,0.794-2.722,0.51-3.517-0.681
	c-1.361-2.042-3.233-3.687-5.388-4.821c-2.099-1.078-4.481-1.702-6.976-1.702c-2.552,0-4.935,0.624-6.976,1.702
	C246.84,318.532,244.968,320.234,243.607,322.219z M256.028,329.309c4.935,0,8.962,4.027,8.962,8.962
	c0,4.935-4.027,8.962-8.962,8.962c-4.935,0-8.962-4.027-8.962-8.962C247.067,333.336,251.094,329.309,256.028,329.309z
	 M197.041,290.457c-0.794,1.134-2.325,1.418-3.517,0.681c-1.134-0.794-1.418-2.325-0.681-3.517
	c7.033-10.266,16.448-18.717,27.509-24.559c10.663-5.615,22.801-8.791,35.676-8.791c12.875,0,25.013,3.176,35.676,8.791
	c11.06,5.842,20.475,14.293,27.509,24.559c0.794,1.134,0.51,2.723-0.681,3.517c-1.134,0.794-2.723,0.51-3.517-0.681
	c-6.523-9.585-15.371-17.526-25.694-22.971c-9.926-5.275-21.27-8.224-33.294-8.224c-12.024,0-23.368,2.949-33.294,8.224
	C212.412,272.931,203.564,280.871,197.041,290.457z M212.525,301.006c-0.794,1.134-2.325,1.418-3.517,0.681
	c-1.134-0.794-1.418-2.325-0.681-3.517c5.275-7.77,12.421-14.123,20.759-18.547c8.054-4.254,17.186-6.636,26.941-6.636
	c9.699,0,18.887,2.382,26.941,6.636c8.338,4.424,15.484,10.777,20.759,18.547c0.794,1.134,0.51,2.723-0.681,3.517
	c-1.134,0.794-2.723,0.51-3.517-0.681c-4.821-7.09-11.344-12.875-18.944-16.902c-7.317-3.857-15.711-6.069-24.559-6.069
	c-8.905,0-17.242,2.212-24.559,6.069C223.869,288.131,217.346,293.973,212.525,301.006z M225.967,310.195
	c-0.794,1.134-2.325,1.418-3.517,0.681c-1.134-0.794-1.418-2.325-0.681-3.517c3.8-5.558,8.905-10.153,14.917-13.329
	c5.785-3.063,12.365-4.764,19.341-4.764c6.976,0,13.556,1.702,19.341,4.764c6.012,3.176,11.117,7.77,14.917,13.329
	c0.794,1.134,0.51,2.723-0.681,3.517c-1.134,0.794-2.723,0.51-3.517-0.681c-3.346-4.878-7.827-8.905-13.102-11.684
	c-5.048-2.666-10.833-4.197-16.959-4.197c-6.126,0-11.911,1.531-16.959,4.197C233.795,301.29,229.314,305.317,225.967,310.195z"/>
<g>
</g>
<g>
</g>
<g>
</g>
<g>
</g>
<g>
</g>
<g>
</g>
<g>
</g>
<g>
</g>
<g>
</g>
<g>
</g>
<g>
</g>
<g>
</g>
<g>
</g>
<g>
</g>
<g>
</g>
</svg>
